<?xml version="1.0" encoding="UTF-8"?>
<svg version="1.1" xmlns="http://www.w3.org/2000/svg" width="256" height="256">
<path d="M0 0 C73.92 0 147.84 0 224 0 C224 55.44 224 110.88 224 168 C150.08 168 76.16 168 0 168 C0 112.56 0 57.12 0 0 Z " fill="#F8F8F8" transform="translate(16,42)"/>
<path d="M0 0 C2.475 4.95 2.475 4.95 5 10 C10.12503129 9.54055655 10.12503129 9.54055655 12.4375 5.875 C13.283125 4.92625 14.12875 3.9775 15 3 C20.09803922 3.09803922 20.09803922 3.09803922 22 5 C22.23427778 7.01594582 22.41336124 9.038474 22.5625 11.0625 C22.64628906 12.16722656 22.73007813 13.27195312 22.81640625 14.41015625 C22.87699219 15.26480469 22.93757813 16.11945313 23 17 C26.38274266 18.12758089 27.76778223 17.81750262 31.1875 17.0625 C32.08855469 16.86785156 32.98960937 16.67320313 33.91796875 16.47265625 C34.60503906 16.31667969 35.29210937 16.16070312 36 16 C39.0078125 19.765625 39.0078125 19.765625 38.9375 21.875 C38 24 38 24 35.9375 27 C33.63831638 29.96481606 33.63831638 29.96481606 34 34 C34.78246094 34.13277344 35.56492187 34.26554687 36.37109375 34.40234375 C37.38300781 34.57894531 38.39492187 34.75554687 39.4375 34.9375 C40.44683594 35.11152344 41.45617187 35.28554687 42.49609375 35.46484375 C45 36 45 36 46 37 C46.04092937 39.33297433 46.04241723 41.66705225 46 44 C44.71086513 44.67154933 43.41859796 45.33708859 42.125 46 C41.40570313 46.37125 40.68640625 46.7425 39.9453125 47.125 C38 48 38 48 36 48 C37.31793186 53.66710699 39.48709197 55.66437233 44 59 C43.34 61.31 42.68 63.62 42 66 C37.71 66.33 33.42 66.66 29 67 C29.60825035 71.34464536 30.26167392 75.67551867 31 80 C27.61696658 83.02056555 27.61696658 83.02056555 25.125 82.9375 C23 82 23 82 20.0625 79.9375 C16.809593 77.87953843 15.69130545 77.80637822 12 78 C11.90912109 79.04800781 11.90912109 79.04800781 11.81640625 80.1171875 C11.73261719 81.02726562 11.64882812 81.93734375 11.5625 82.875 C11.48128906 83.77992188 11.40007812 84.68484375 11.31640625 85.6171875 C11 88 11 88 10 90 C7.69 90 5.38 90 3 90 C2.32845067 88.71086513 1.66291141 87.41859796 1 86.125 C0.62875 85.40570313 0.2575 84.68640625 -0.125 83.9453125 C-1 82 -1 82 -1 80 C-6.59282842 81.36410449 -9.91193811 84.15383526 -14 88 C-16.44921875 86.88671875 -16.44921875 86.88671875 -19 85 C-19.70703125 82.08203125 -19.70703125 82.08203125 -19.8125 78.8125 C-19.86019531 77.72582031 -19.90789062 76.63914062 -19.95703125 75.51953125 C-19.97121094 74.68808594 -19.98539063 73.85664063 -20 73 C-21.35544922 73.16048828 -21.35544922 73.16048828 -22.73828125 73.32421875 C-23.91777344 73.44410156 -25.09726563 73.56398438 -26.3125 73.6875 C-27.48425781 73.81511719 -28.65601562 73.94273437 -29.86328125 74.07421875 C-33 74 -33 74 -34.921875 72.66015625 C-36 71 -36 71 -35.9375 68.75 C-35.12007563 66.35222186 -34.21463869 64.53701336 -32.9375 62.375 C-30.75106624 59.21497304 -30.75106624 59.21497304 -31 56 C-31.92232422 55.90912109 -31.92232422 55.90912109 -32.86328125 55.81640625 C-33.67152344 55.73261719 -34.47976562 55.64882812 -35.3125 55.5625 C-36.11300781 55.48128906 -36.91351563 55.40007812 -37.73828125 55.31640625 C-40 55 -40 55 -43 54 C-43.3125 50.6875 -43.3125 50.6875 -43 47 C-40.75 45.1875 -40.75 45.1875 -38 44 C-36.8553125 43.4121875 -36.8553125 43.4121875 -35.6875 42.8125 C-35.130625 42.544375 -34.57375 42.27625 -34 42 C-34.31767632 36.59950264 -37.19996327 34.47662935 -41 31 C-40.01 27.535 -40.01 27.535 -39 24 C-34.71 24 -30.42 24 -26 24 C-26.51958285 19.62065881 -27.05675742 15.31196609 -28 11 C-26.02 9.68 -24.04 8.36 -22 7 C-21.32904297 7.54140625 -21.32904297 7.54140625 -20.64453125 8.09375 C-20.03996094 8.5578125 -19.43539062 9.021875 -18.8125 9.5 C-18.22082031 9.9640625 -17.62914063 10.428125 -17.01953125 10.90625 C-14.65001401 12.39685696 -14.65001401 12.39685696 -10 12 C-8.515 6.555 -8.515 6.555 -7 1 C-3 0 -3 0 0 0 Z " fill="#CCD5DA" transform="translate(103,65)"/>
<path d="M0 0 C2.64 0 5.28 0 8 0 C9.32 3.3 10.64 6.6 12 10 C15.7673853 9.6306485 18.44974102 9.34551145 21.6875 7.3125 C22.450625 6.879375 23.21375 6.44625 24 6 C26.74877531 6.86390081 27.95519649 7.95519649 30 10 C29.70298296 12.74740766 29.01818349 14.95721531 27.9375 17.5 C26.93335056 20.17773183 26.83804459 22.16578026 27 25 C28.051875 25.12375 29.10375 25.2475 30.1875 25.375 C33.45958771 25.91140782 36.00536076 26.63880035 39 28 C39 30.31 39 32.62 39 35 C38.28972656 35.24234375 37.57945312 35.4846875 36.84765625 35.734375 C35.92855469 36.06953125 35.00945312 36.4046875 34.0625 36.75 C33.14597656 37.07484375 32.22945312 37.3996875 31.28515625 37.734375 C28.87867645 38.78195491 28.87867645 38.78195491 28.05859375 40.92578125 C27.97346891 43.93920066 29.58751549 45.77468006 31.1328125 48.2578125 C32 50 32 50 31.875 52.8125 C31 55 31 55 29 57 C24.51171822 56.58248542 20.31794699 55.24556163 16 54 C15.34 54 14.68 54 14 54 C13.86722656 54.69867188 13.73445313 55.39734375 13.59765625 56.1171875 C13.42105469 57.02726562 13.24445313 57.93734375 13.0625 58.875 C12.88847656 59.77992188 12.71445313 60.68484375 12.53515625 61.6171875 C12 64 12 64 11 66 C8.69 66 6.38 66 4 66 C3.32591692 64.73308493 2.66099503 63.46129251 2 62.1875 C1.443125 61.12595703 1.443125 61.12595703 0.875 60.04296875 C0 58 0 58 0 55 C-5.34844008 55.53484401 -9.35796103 57.46690767 -14 60 C-15.65 58.68 -17.3 57.36 -19 56 C-18.67515625 55.12988281 -18.67515625 55.12988281 -18.34375 54.2421875 C-16.71564951 49.67446113 -15.62138818 45.9219536 -16 41 C-17.258125 40.855625 -18.51625 40.71125 -19.8125 40.5625 C-22.42667123 40.26251314 -24.47439892 39.84186703 -27 39 C-27 36.36 -27 33.72 -27 31 C-23.7 29.35 -20.4 27.7 -17 26 C-17.39881329 22.57020567 -17.8018182 20.3082828 -19.6875 17.375 C-20.120625 16.59125 -20.55375 15.8075 -21 15 C-20.13609919 12.25122469 -19.04480351 11.04480351 -17 9 C-12.77025268 9.38452248 -9.0018187 10.63574363 -5 12 C-4.34 12 -3.68 12 -3 12 C-2.01 8.04 -1.02 4.08 0 0 Z " fill="#BAC3C7" transform="translate(158,127)"/>
<path d="M0 0 C73.92 0 147.84 0 224 0 C224 55.44 224 110.88 224 168 C150.08 168 76.16 168 0 168 C0 112.56 0 57.12 0 0 Z M1 8 C1 60.14 1 112.28 1 166 C74.26 166 147.52 166 223 166 C223 113.86 223 61.72 223 8 C149.74 8 76.48 8 1 8 Z " fill="#85898C" transform="translate(16,42)"/>
<path d="M0 0 C4.25613963 4.18730718 6.13986084 7.83745037 6.25 13.8125 C6.16425774 19.18308351 5.22959371 22.71116588 1.3828125 26.66015625 C-3.59016259 31.17425167 -7.14065407 32.34644038 -13.984375 32.20703125 C-19.95387175 31.59388527 -23.20971496 28.00389119 -26.80078125 23.62109375 C-30.04950191 19.22950068 -29.6162962 14.24914348 -29 9 C-27.27821088 4.32877839 -24.69538212 1.13191162 -20.4375 -1.4375 C-13.06976832 -4.78646894 -7.05690448 -4.44891804 0 0 Z " fill="#F9F9F9" transform="translate(116,96)"/>
<path d="M0 0 C3.30583039 2.20388692 3.88814046 3.58984836 4.9375 7.4375 C5.00845985 11.48221121 4.56599956 12.92080053 2 16 C-1.03489564 18.5290797 -2.51887435 19 -6.5 19 C-10.77727291 17.77792202 -12.44295652 16.64184981 -15 13 C-15.70350252 10.16883131 -15.73108851 7.82725634 -15 5 C-10.4086627 -0.67875929 -7.04293066 -1.77119246 0 0 Z " fill="#F6F6F6" transform="translate(169,151)"/>
<path d="M0 0 C2.77249629 2.42593425 3.46931169 3.69901648 4.5 7.1875 C4.768125 7.7753125 5.03625 8.363125 5.3125 8.96875 C7.65236906 14.23345538 8.04155484 18.60065696 6.5 24.1875 C4.56601126 27.66867974 2.45991819 30.52357363 -0.5 33.1875 C-1.16 32.8575 -1.82 32.5275 -2.5 32.1875 C-2.07847656 31.71699219 -1.65695313 31.24648437 -1.22265625 30.76171875 C-0.67480469 30.13910156 -0.12695312 29.51648438 0.4375 28.875 C1.25541016 27.95267578 1.25541016 27.95267578 2.08984375 27.01171875 C5.40718538 22.72031005 5.07198018 17.3509923 4.5 12.1875 C2.95928401 7.8846714 0.52907356 4.43904111 -3.5 2.1875 C-9.07993305 -0.34883321 -14.05235741 -0.02038886 -19.71875 1.96484375 C-20.4303125 2.24457031 -21.141875 2.52429688 -21.875 2.8125 C-23.07125 3.26625 -24.2675 3.72 -25.5 4.1875 C-26.16 3.8575 -26.82 3.5275 -27.5 3.1875 C-26.11133677 2.1981909 -24.71370149 1.22146922 -23.3125 0.25 C-22.53519531 -0.29527344 -21.75789063 -0.84054688 -20.95703125 -1.40234375 C-14.06732405 -5.35653182 -6.73144675 -3.48592778 0 0 Z " fill="#C4CACD" transform="translate(116.5,92.8125)"/>
<path d="M0 0 C0.33 1.32 0.66 2.64 1 4 C-1.31 3.34 -3.62 2.68 -6 2 C-6.09474609 3.13888672 -6.09474609 3.13888672 -6.19140625 4.30078125 C-7.1550638 12.12162305 -7.1550638 12.12162305 -9.48046875 14.5390625 C-11.25 15.4375 -11.25 15.4375 -15 16 C-18.25 14.125 -18.25 14.125 -21 12 C-21.99 12.33 -22.98 12.66 -24 13 C-23.62875 14.0725 -23.2575 15.145 -22.875 16.25 C-22 20 -22 20 -22.875 22.4375 C-23.24625 22.953125 -23.6175 23.46875 -24 24 C-25.57554035 21.11371599 -26.46276373 18.46657616 -27.125 15.25 C-27.29257813 14.45078125 -27.46015625 13.6515625 -27.6328125 12.828125 C-27.75398438 12.22484375 -27.87515625 11.6215625 -28 11 C-26.02 9.68 -24.04 8.36 -22 7 C-21.55269531 7.3609375 -21.10539062 7.721875 -20.64453125 8.09375 C-20.03996094 8.5578125 -19.43539062 9.021875 -18.8125 9.5 C-18.22082031 9.9640625 -17.62914063 10.428125 -17.01953125 10.90625 C-14.65001401 12.39685696 -14.65001401 12.39685696 -10 12 C-9.01 8.37 -8.02 4.74 -7 1 C-3 0 -3 0 0 0 Z " fill="#C1C7CB" transform="translate(103,65)"/>
<path d="M0 0 C3.92670595 2.11438013 6.63262715 4.23125126 9 8 C9.79828193 12.03132375 9.90440654 16.17629956 8.05078125 19.9140625 C5.53184 23.14021439 2.98837645 25.16522353 -1 26 C-5.78802024 25.98084792 -9.42844765 25.42273767 -13 22 C-12.67 21.34 -12.34 20.68 -12 20 C-11.525625 20.495 -11.05125 20.99 -10.5625 21.5 C-6.76114603 23.72518281 -3.30202056 23.5456607 1 23 C3.63624641 22.27314412 3.63624641 22.27314412 5 20 C6.39246407 14.70032332 6.44152018 10.00511636 4 5 C0.842224 2.894816 0.04602866 2.74710656 -3.5625 2.8125 C-4.34753906 2.81894531 -5.13257813 2.82539063 -5.94140625 2.83203125 C-8.06354672 2.87635911 -8.06354672 2.87635911 -10 4 C-9.67 3.01 -9.34 2.02 -9 1 C-5.89046621 -0.5547669 -3.43733239 -0.28644437 0 0 Z " fill="#C8D0D4" transform="translate(167,147)"/>
<path d="M0 0 C0.33 0 0.66 0 1 0 C0.64516129 6.2688172 0.64516129 6.2688172 -1.875 9.125 C-6.88124292 10.52674802 -11.19130282 8.64219956 -16 7 C-16.2906191 10.04117104 -16.2906191 10.04117104 -14.4375 12.1875 C-12.74346402 15.50191823 -12.50348203 17.49131922 -13.07421875 21.12890625 C-14.70729848 24.42951886 -17.75044627 25.20608976 -21.06640625 26.40625 C-22.02353516 26.70015625 -22.02353516 26.70015625 -23 27 C-23 27.99 -23 28.98 -23 30 C-22.34 30.66 -21.68 31.32 -21 32 C-22.65 32 -24.3 32 -26 32 C-26 30.02 -26 28.04 -26 26 C-25.28972656 25.68546875 -24.57945312 25.3709375 -23.84765625 25.046875 C-22.92855469 24.61890625 -22.00945312 24.1909375 -21.0625 23.75 C-20.14597656 23.33234375 -19.22945312 22.9146875 -18.28515625 22.484375 C-15.89415262 21.21226677 -15.89415262 21.21226677 -15.05859375 19.046875 C-14.98646591 16.52720919 -15.5797826 15.55557782 -17 13.5 C-19.02083333 10.26388889 -19.02083333 10.26388889 -18.8125 7.625 C-18 6 -18 6 -17 5 C-13.70087226 5.38066859 -10.48878973 5.88891143 -7.25 6.625 C-4.84078821 7.20686702 -4.84078821 7.20686702 -2 6 C-0.77479736 2.99152582 -0.77479736 2.99152582 0 0 Z " fill="#D3DADE" transform="translate(158,133)"/>
<path d="M0 0 C1.5625 1.1875 1.5625 1.1875 3 3 C2.79965334 6.9067598 1.3776361 9.002111 -1 12 C-1 12.66 -1 13.32 -1 14 C2.34252456 14.71625526 4.796071 15.03598747 8.1875 14.4375 C11 14 11 14 14 16 C13.67 20.29 13.34 24.58 13 29 C12.67 29 12.34 29 12 29 C11.67 25.04 11.34 21.08 11 17 C10.09636719 17.10699219 9.19273438 17.21398437 8.26171875 17.32421875 C7.08222656 17.44410156 5.90273437 17.56398437 4.6875 17.6875 C3.51574219 17.81511719 2.34398438 17.94273437 1.13671875 18.07421875 C-2 18 -2 18 -3.921875 16.66015625 C-5 15 -5 15 -4.9375 12.75 C-4.12007563 10.35222186 -3.21463869 8.53701336 -1.9375 6.375 C0.24893376 3.21497304 0.24893376 3.21497304 0 0 Z " fill="#BBC2C6" transform="translate(72,121)"/>
<path d="M0 0 C3.01510598 -0.3259574 4.46077366 -0.43138108 6.875 1.5 C8.50219005 5.11597788 7.75050514 8.2474743 7 12 C6.814375 12.99 6.62875 13.98 6.4375 15 C6.293125 15.66 6.14875 16.32 6 17 C8.67738229 16.50418846 10.20290353 15.86304011 12.5 14.3125 C13.325 13.879375 14.15 13.44625 15 13 C17.3125 13.8125 17.3125 13.8125 19 15 C18.0925 15.2475 17.185 15.495 16.25 15.75 C12.85392584 17.05618237 11.44083812 18.39082822 9 21 C8.01 21.33 7.02 21.66 6 22 C3.3125 20.0625 3.3125 20.0625 1 18 C1.33 16.68 1.66 15.36 2 14 C2.66 14 3.32 14 4 14 C4.36402369 12.56496445 4.71586591 11.12683494 5.0625 9.6875 C5.25972656 8.88699219 5.45695313 8.08648437 5.66015625 7.26171875 C6.19885554 4.84042821 6.19885554 4.84042821 5 2 C3.35 1.67 1.7 1.34 0 1 C0 0.67 0 0.34 0 0 Z " fill="#CBD3D8" transform="translate(138,165)"/>
<path d="M0 0 C5.09803922 0.09803922 5.09803922 0.09803922 7 2 C7.23427778 4.01594582 7.41336124 6.038474 7.5625 8.0625 C7.68818359 9.71958984 7.68818359 9.71958984 7.81640625 11.41015625 C7.87699219 12.26480469 7.93757813 13.11945313 8 14 C11.38274266 15.12758089 12.76778223 14.81750262 16.1875 14.0625 C17.53908203 13.77052734 17.53908203 13.77052734 18.91796875 13.47265625 C19.94857422 13.23869141 19.94857422 13.23869141 21 13 C21.66 14.32 22.32 15.64 23 17 C22.01 16.814375 21.02 16.62875 20 16.4375 C17.09229 16.0001615 14.65028391 16.10060293 11.75 16.5625 C8 17 8 17 5 15 C4.70703125 12.1796875 4.70703125 12.1796875 4.8125 8.875 C4.83957031 7.77929688 4.86664063 6.68359375 4.89453125 5.5546875 C4.92933594 4.71164063 4.96414062 3.86859375 5 3 C1.29212605 3.53674714 0.24845165 3.73880724 -2.4375 6.5625 C-5 9 -5 9 -8.125 9.5625 C-11 9 -11 9 -12.9375 7.25 C-14 5 -14 5 -13.6875 2.75 C-13.460625 2.1725 -13.23375 1.595 -13 1 C-12.01 2.98 -11.02 4.96 -10 7 C-7.67108098 6.95547581 -7.67108098 6.95547581 -5 6 C-3.7934375 4.453125 -3.7934375 4.453125 -2.5625 2.875 C-1.716875 1.92625 -0.87125 0.9775 0 0 Z " fill="#AFB5B9" transform="translate(118,68)"/>
<path d="M0 0 C2.475 0.495 2.475 0.495 5 1 C5 4.96 5 8.92 5 13 C7.64 13.66 10.28 14.32 13 15 C12.34 15.66 11.68 16.32 11 17 C5.54545455 16.54545455 5.54545455 16.54545455 3 14 C2.5859375 11.1796875 2.5859375 11.1796875 2.375 7.875 C2.30023438 6.77929688 2.22546875 5.68359375 2.1484375 4.5546875 C2.09945312 3.71164063 2.05046875 2.86859375 2 2 C0.85373678 2.97866338 -0.29199788 3.95794587 -1.4375 4.9375 C-2.39462891 5.75541016 -2.39462891 5.75541016 -3.37109375 6.58984375 C-4.26991149 7.36795695 -5.15936528 8.15936528 -6 9 C-8.69082872 8.82364548 -11.32851446 8.38164079 -14 8 C-14.33 6.35 -14.66 4.7 -15 3 C-14.62875 3.495 -14.2575 3.99 -13.875 4.5 C-12.01914262 6.22014015 -12.01914262 6.22014015 -9.1875 6.5625 C-5.18450159 5.85608852 -4.02647038 4.32948823 -1.58984375 1.21484375 C-0.80287109 0.61349609 -0.80287109 0.61349609 0 0 Z " fill="#E9EDF0" transform="translate(119,70)"/>
<path d="M0 0 C0.66 0.99 1.32 1.98 2 3 C0.625 5.5 0.625 5.5 -2 8 C-6.0270933 8.61055931 -10.30091856 8.84954072 -14 7 C-12.96696004 10.38085804 -12.3420201 11.76384327 -9.375 13.8125 C-7 16 -7 16 -6.67578125 18.02734375 C-6.68629332 20.0211326 -6.83442255 22.01307056 -7 24 C-8.32 24.33 -9.64 24.66 -11 25 C-10.34 24.67 -9.68 24.34 -9 24 C-8.59270772 21.67843403 -8.25561323 19.3431213 -8 17 C-8.5775 16.7525 -9.155 16.505 -9.75 16.25 C-12.41076851 14.77179527 -14.13556544 13.41685961 -16 11 C-15.67 9.35 -15.34 7.7 -15 6 C-10.71 6 -6.42 6 -2 6 C-1.34 4.02 -0.68 2.04 0 0 Z " fill="#E6EBEE" transform="translate(80,85)"/>
<path d="M0 0 C1.47968324 0.14049518 2.95874516 0.28754826 4.4375 0.4375 C5.67306641 0.55931641 5.67306641 0.55931641 6.93359375 0.68359375 C9 1 9 1 10 2 C10.04092937 4.33297433 10.04241723 6.66705225 10 9 C8.71086513 9.67154933 7.41859796 10.33708859 6.125 11 C5.40570313 11.37125 4.68640625 11.7425 3.9453125 12.125 C2 13 2 13 0 13 C1.30155006 17.07964281 1.30155006 17.07964281 3 21 C-0.875 19.125 -0.875 19.125 -2 18 C-2.04092937 15.66702567 -2.04241723 13.33294775 -2 11 C1.85756507 8.84694043 4.55129785 7.60746746 9 8 C9 6.35 9 4.7 9 3 C4.545 2.01 4.545 2.01 0 1 C0 0.67 0 0.34 0 0 Z " fill="#B8BFC3" transform="translate(139,100)"/>
<path d="M0 0 C1.07765625 0.03609375 2.1553125 0.0721875 3.265625 0.109375 C4.49539062 0.17898437 4.49539062 0.17898437 5.75 0.25 C5.75 1.24 5.75 2.23 5.75 3.25 C3.95843648 3.41777183 2.1667455 3.58418294 0.375 3.75 C-0.62273437 3.8428125 -1.62046875 3.935625 -2.6484375 4.03125 C-5.25 4.25 -5.25 4.25 -7.25 4.25 C-8.24843846 7.24531539 -8.25732761 8.42255732 -7.8125 11.4375 C-7.626875 12.695625 -7.44125 13.95375 -7.25 15.25 C-9.06170437 12.53244345 -9.64140483 11.38509856 -10.125 8.3125 C-10.24617187 7.64347656 -10.36734375 6.97445312 -10.4921875 6.28515625 C-10.25 4.25 -10.25 4.25 -8.6484375 2.01171875 C-5.56292102 -0.25467854 -3.78493259 -0.16456229 0 0 Z " fill="#D7DEE2" transform="translate(138.25,126.75)"/>
<path d="M0 0 C2.31 0.66 4.62 1.32 7 2 C4 3 4 3 0 3 C-0.13277344 3.69867188 -0.26554688 4.39734375 -0.40234375 5.1171875 C-0.57894531 6.02726563 -0.75554687 6.93734375 -0.9375 7.875 C-1.11152344 8.77992188 -1.28554687 9.68484375 -1.46484375 10.6171875 C-2 13 -2 13 -3 15 C-5.31 15 -7.62 15 -10 15 C-10 14.01 -10 13.02 -10 12 C-8.02 12 -6.04 12 -4 12 C-3.79503906 11.21753906 -3.59007812 10.43507812 -3.37890625 9.62890625 C-3.10949219 8.61699219 -2.84007812 7.60507813 -2.5625 6.5625 C-2.29566406 5.55316406 -2.02882812 4.54382813 -1.75390625 3.50390625 C-1 1 -1 1 0 0 Z " fill="#ABB1B5" transform="translate(172,178)"/>
<path d="M0 0 C0.66 0 1.32 0 2 0 C2.33 0.99 2.66 1.98 3 3 C4.87387216 3.80212628 4.87387216 3.80212628 7.0625 4.1875 C7.79597656 4.34605469 8.52945313 4.50460938 9.28515625 4.66796875 C9.85105469 4.77753906 10.41695312 4.88710937 11 5 C11 5.33 11 5.66 11 6 C3.57142857 6.14285714 3.57142857 6.14285714 0 5 C0 3.35 0 1.7 0 0 Z " fill="#E1E7EB" transform="translate(61,113)"/>
<path d="M0 0 C1.9375 0.8125 1.9375 0.8125 4 2 C5.2077558 5.62326739 4.54311128 6.64146369 3 10 C1.02 10 -0.96 10 -3 10 C-3 9.67 -3 9.34 -3 9 C-1.35 9 0.3 9 2 9 C2.33 7.02 2.66 5.04 3 3 C2.01 2.67 1.02 2.34 0 2 C0 1.34 0 0.68 0 0 Z " fill="#ADB3B7" transform="translate(142,121)"/>
<path d="M0 0 C1.32 1.65 2.64 3.3 4 5 C5.98 4.67 7.96 4.34 10 4 C7.94766315 6.2477975 6.99332739 7.0022242 4 8 C1.3125 6.0625 1.3125 6.0625 -1 4 C-0.67 2.68 -0.34 1.36 0 0 Z " fill="#A9AFB3" transform="translate(140,179)"/>
<path d="M0 0 C2.31 0.33 4.62 0.66 7 1 C7.66 2.65 8.32 4.3 9 6 C8.34 6 7.68 6 7 6 C6.67 5.01 6.34 4.02 6 3 C3.69 3 1.38 3 -1 3 C-0.67 2.01 -0.34 1.02 0 0 Z " fill="#D7DFE4" transform="translate(96,141)"/>
<path d="M0 0 C1.5625 1.1875 1.5625 1.1875 3 3 C2.6875 5.6875 2.6875 5.6875 2 8 C0.68 8.33 -0.64 8.66 -2 9 C-1.505 7.6078125 -1.505 7.6078125 -1 6.1875 C0.14967004 3.07970709 0.14967004 3.07970709 0 0 Z " fill="#BFC5C9" transform="translate(72,121)"/>
<path d="M0 0 C0 0.66 0 1.32 0 2 C-0.598125 2.268125 -1.19625 2.53625 -1.8125 2.8125 C-3.97224808 3.98493467 -5.35790256 5.19369282 -7 7 C-7 5.35 -7 3.7 -7 2 C-2.25 0 -2.25 0 0 0 Z " fill="#B7BDC1" transform="translate(161,149)"/>
<path d="M0 0 C0.99 0.33 1.98 0.66 3 1 C3 3.97 3 6.94 3 10 C1.19669467 6.39338934 0.53400897 3.91606575 0 0 Z " fill="#DDE4E8" transform="translate(121,70)"/>
</svg>
