<?xml version="1.0" encoding="UTF-8"?>
<svg id="Layer_1" data-name="Layer 1" xmlns="http://www.w3.org/2000/svg" viewBox="0 0 22.62 11.64">
  <defs>
    <style>
      .cls-1 {
        fill: #ff7f00;
      }

      .cls-1, .cls-2, .cls-3 {
        stroke-width: 0px;
      }

      .cls-2 {
        fill: #ff8000;
      }

      .cls-3 {
        fill: #fe7f00;
      }
    </style>
  </defs>
  <path class="cls-3" d="m18.42,2.32s.08.05.11.08c.22.16.39.33.56.55-.27-.08-.53-.19-.79-.3-1.14-.49-2.33-.78-3.57-.98-.05,0-.09-.02-.14-.02-3.14-.49-7.12-.08-9.77,1.74-.74.55-1.4,1.19-1.58,2.11-.09.79.14,1.39.62,2.01,1.55,1.78,4.18,2.38,6.45,2.64.05,0,.1.01.16.02.58.06,1.16.06,1.74.06.05,0,.11,0,.17,0,2.16,0,4.27-.35,6.23-1.26.12-.06.24-.11.37-.16.04.02.09.04.13.06-2.25,2.2-5.93,2.76-8.97,2.76-3.13-.02-6.54-.78-8.87-2.95C.45,7.88,0,6.89,0,5.75c.03-1.15.66-2.11,1.49-2.9C5.67-.93,13.91-.79,18.42,2.32Z"/>
  <path class="cls-1" d="m19,3.78c.21.12.39.27.55.45v.13c.06-.04.11-.07.17-.11.08-.05.15-.09.23-.14.04-.02.08-.05.11-.07.38-.23.65-.34,1.11-.34q.12,0,.23,0c.35.04.6.16.83.43.41.5.38,1.07.38,1.68,0,.06,0,.13,0,.2,0,.2,0,.41,0,.61,0,.14,0,.28,0,.42,0,.34,0,.68,0,1.02h-1.5c0-.2,0-.41,0-.62,0-.2,0-.4,0-.59,0-.14,0-.28,0-.41,0-.2,0-.4,0-.59,0-.06,0-.12,0-.19,0-.06,0-.12,0-.17,0-.05,0-.1,0-.15-.03-.18-.1-.27-.22-.4q-.15-.04-.31-.02c-.05,0-.11,0-.16,0q-.21.02-.56.15v3h-1.43c0-.18,0-.37,0-.56,0-.18,0-.36-.01-.54,0-.12,0-.25,0-.37,0-.18,0-.36-.01-.54,0-.05,0-.11,0-.17,0-.32-.04-.6-.15-.9-.16-.08-.26-.07-.44-.08-.05,0-.11,0-.17,0q-.22.01-.57.14v3h-1.43V3.78h1.43c.02.13.04.25.07.38.07-.05.13-.1.2-.15.47-.35,1.17-.44,1.72-.23Z"/>
  <path class="cls-1" d="m10.24,3.91l.13-.13q.14-.01.31-.01c.06,0,.12,0,.19,0,.06,0,.13,0,.19,0,.06,0,.13,0,.2,0,.16,0,.32,0,.48,0,0,.54,0,1.08.01,1.62,0,.25,0,.5,0,.75,0,.24,0,.48,0,.73,0,.09,0,.18,0,.28,0,.68-.01,1.33-.48,1.87-.57.53-1.26.61-2.01.59-.07,0-.14,0-.21,0-.47,0-.9-.05-1.36-.15v-1.15q.52.06.76.13c.5.13,1.1.16,1.55-.1.18-.18.2-.42.23-.67-.03.02-.07.04-.1.05-.55.28-1.06.35-1.67.19-.53-.17-.85-.45-1.09-.94-.22-.71-.26-1.6.05-2.28.56-.98,1.8-1.28,2.81-.78Zm-1.32,1.19c-.19.26-.19.43-.19.75,0,.08,0,.17,0,.25.02.26.07.41.22.63.23.17.51.21.79.18.24-.05.38-.1.57-.25q.04-.19.03-.41c0-.08,0-.16,0-.24,0-.08,0-.17,0-.25,0-.09,0-.17,0-.26,0-.21,0-.42-.02-.63-.49-.25-1.01-.19-1.39.23Z"/>
  <path class="cls-2" d="m12.91,2.18h1.5v5.87h-1.5V2.18Z"/>
</svg>