<?xml version="1.0" encoding="UTF-8"?>
<svg id="Layer_1" data-name="Layer 1" xmlns="http://www.w3.org/2000/svg" viewBox="0 0 12 10.79">
  <defs>
    <style>
      .cls-1 {
        fill: #fa5c5c;
        stroke-width: 0px;
      }
    </style>
  </defs>
  <path class="cls-1" d="m1.56.07C1.04.38.01,1.56,0,1.87v.52c0,.65.61,1.23,1.16,1.23.66,0,1.22-.55,1.22-1.2,0,.65.53,1.2,1.2,1.2s1.18-.55,1.18-1.2c0,.65.57,1.2,1.23,1.2h.01c.67,0,1.23-.55,1.23-1.2,0,.65.52,1.2,1.18,1.2s1.2-.55,1.2-1.2c0,.65.55,1.2,1.22,1.2.55,0,1.16-.57,1.16-1.23v-.52c-.01-.31-1.04-1.49-1.57-1.8-1.63-.06-2.75-.07-4.43-.07-1.68,0-3.97.03-4.44.07h0Zm3.19,3.24c-.06.11-.14.21-.23.3h0c-.26.26-.61.4-.97.4-.36,0-.71-.14-.97-.4-.09-.09-.16-.19-.22-.3-.06.11-.15.21-.24.3-.26.26-.61.4-.97.4h0s-.09-.01-.13-.03c-.05.49-.07.98-.08,1.48h0c0,.2,0,.36,0,.58.01,1.17-.12,3.78.52,4.43.98.23,2.77.33,4.57.33h0c1.8,0,3.6-.11,4.57-.33.63-.64.5-3.26.52-4.43,0-.22,0-.38,0-.58h0c0-.49-.04-.99-.08-1.48-.04.02-.09.03-.13.03h0c-.36,0-.71-.14-.97-.4h0c-.09-.09-.18-.18-.24-.3h0c-.06.11-.13.21-.22.3-.54.53-1.41.53-1.95,0-.09-.09-.17-.19-.23-.3h0c-.06.11-.14.21-.23.3-.26.26-.61.4-.97.4h0s-.03,0-.04,0c-.01,0-.03,0-.04,0h0c-.36,0-.71-.14-.97-.4-.09-.09-.17-.19-.23-.3h0s0,0,0,0Zm-1,1.3c.4,0,.75,0,1.19.48.34-.03.7-.05,1.06-.05s.72.02,1.06.05c.44-.48.79-.48,1.19-.48h0c.19,0,.94,0,1.46,1.47l.56,2.01c.42,1.5-.13,1.54-.82,1.54-1.02-.04-1.58-.78-1.58-1.51-.56.09-1.22.14-1.88.14s-1.31-.05-1.87-.14c0,.74-.56,1.48-1.58,1.51-.69,0-1.23-.04-.82-1.54l.56-2.01c.52-1.47,1.27-1.47,1.46-1.47h0Zm2.25,1.15s-1.07.98-1.26,1.33l.7-.03v.61s.28.02.56,0c.28.01.56.03.56,0v-.61l.7.03c-.19-.35-1.26-1.33-1.26-1.33"/>
</svg>